<?xml version="1.0" ?><!DOCTYPE svg  PUBLIC '-//W3C//DTD SVG 1.1//EN'  'http://www.w3.org/Graphics/SVG/1.1/DTD/svg11.dtd'><svg height="32px" style="fill-rule:evenodd;clip-rule:evenodd;stroke-linejoin:round;stroke-miterlimit:2;" version="1.1" width="32px" xml:space="preserve" xmlns="http://www.w3.org/2000/svg" xmlns:serif="http://www.serif.com/" xmlns:xlink="http://www.w3.org/1999/xlink"><path d="M17.347,28.364c2.409,-0.498 4.153,-2.297 4.153,-4.364c-0,-0.276 -0.224,-0.5 -0.5,-0.5c-2.556,0 -7.754,0 -10,0c-0.276,0 -0.5,0.224 -0.5,0.5c-0,2.028 1.677,3.798 4.018,4.335c0.131,0.03 2.741,0.047 2.829,0.029Zm-0,-24.728c-0.088,-0.018 -2.698,-0 -2.829,0.03c-2.341,0.537 -4.018,2.306 -4.018,4.334c-0,0.276 0.224,0.5 0.5,0.5c3.159,-0 6.696,0 10,0c0.276,0 0.5,-0.224 0.5,-0.5c-0,-2.067 -1.744,-3.865 -4.153,-4.364Z" style="fill:#28527a;"/><path d="M12,23.5c0,0 1.246,0 -1,0c-0.276,0 -0.5,0.224 -0.5,0.5c-0,2.028 1.677,3.798 4.018,4.335c0.114,0.026 2.115,0.043 2.682,0.034c-0.752,-0.005 -1.608,-0.017 -1.682,-0.034c-2.34,-0.537 -4.018,-2.307 -4.018,-4.335c0,-0.276 0.224,-0.5 0.5,-0.5Zm-1,-15c3.159,-0 1,-0 1,-0c-0.277,-0 -0.5,-0.224 -0.5,-0.5c-0,-2.028 1.677,-3.797 4.017,-4.334c0.074,-0.017 0.931,-0.03 1.683,-0.035c-0.567,-0.008 -2.568,0.009 -2.682,0.035c-2.341,0.537 -4.018,2.306 -4.018,4.334c-0,0.276 0.224,0.5 0.5,0.5Z" style="fill:#507496;"/><path d="M22.5,9c-0,-0.398 -0.158,-0.779 -0.439,-1.061c-0.282,-0.281 -0.663,-0.439 -1.061,-0.439c-2.26,-0 -7.74,-0 -10,-0c-0.828,-0 -1.5,0.672 -1.5,1.5l0,3c0,0.276 0.224,0.5 0.5,0.5l12,0c0.133,-0 0.26,-0.053 0.354,-0.146c0.093,-0.094 0.146,-0.221 0.146,-0.354l-0,-3Z" style="fill:#f4d160;"/><path d="M12,7.5l-1,-0c-0.828,-0 -1.5,0.672 -1.5,1.5l0,3c0,0.276 0.224,0.5 0.5,0.5l1,0c-0.276,0 -0.5,-0.224 -0.5,-0.5l-0,-3c0,-0.828 0.672,-1.5 1.5,-1.5Z" style="fill:#dcc26f;"/><path d="M18,12.5c0.276,0 0.5,-0.224 0.5,-0.5l0,-4c0,-0.276 -0.224,-0.5 -0.5,-0.5l-4,-0c-0.133,-0 -0.26,0.053 -0.354,0.146c-0.093,0.094 -0.146,0.221 -0.146,0.354l0,4c0,0.276 0.224,0.5 0.5,0.5l4,0Z" style="fill:#fbeeac;"/><path d="M14.995,7.5l-0.995,-0c-0.133,-0 -0.26,0.053 -0.354,0.146c-0.093,0.094 -0.146,0.221 -0.146,0.354l0,4c0,0.276 0.224,0.5 0.5,0.5l1,0c-0.276,0 -0.5,-0.224 -0.5,-0.5l-0,-4c0,-0.133 0.053,-0.26 0.146,-0.354c0.093,-0.092 0.218,-0.145 0.349,-0.146Z" style="fill:#e7dfb6;"/><path d="M21.5,12.006c-0,-0.276 -0.224,-0.5 -0.5,-0.5l-9.999,-0c-0.276,-0 -0.5,0.224 -0.5,0.5l-0,9c-0,0.276 0.224,0.5 0.5,0.5l9.999,-0c0.276,-0 0.5,-0.224 0.5,-0.5l-0,-9Z" style="fill:#fbeeac;"/><path d="M10.993,11.5l-0.993,0c-0.828,0 -1.5,0.672 -1.5,1.5l-0,6c0,0.828 0.672,1.5 1.5,1.5c0.5,0 1,0 1,0c0.276,0 0.5,-0.224 0.5,-0.5l0,-8c-0,-0.276 -0.224,-0.5 -0.5,-0.5l-0.007,0Zm10.014,0l-0.007,0c-0.275,0 -0.498,0.222 -0.5,0.496l0,8.004c0,0.276 0.224,0.5 0.5,0.5l1,-0c0.828,-0 1.5,-0.672 1.5,-1.5l0,-6c-0,-0.828 -0.672,-1.5 -1.5,-1.5l-0.993,0Z" style="fill:#28527a;"/><path d="M10.978,11.5l-0.978,0c-0.828,0 -1.5,0.672 -1.5,1.5l-0,6c0,0.828 0.672,1.5 1.5,1.5c0.5,0 1,0 1,0c-0.828,0 -1.5,-0.672 -1.5,-1.5l-0,-6c0,-0.821 0.66,-1.488 1.478,-1.5Zm0.022,0l-0,0l0,0Z" style="fill:#507496;"/><path d="M14.146,27.644c-0.094,0.094 -0.147,0.221 -0.147,0.354c0,0.132 0.053,0.26 0.146,0.354l1.501,1.501c0.094,0.094 0.221,0.147 0.354,0.147c0.132,-0 0.26,-0.053 0.353,-0.147l1.501,-1.502c0.093,-0.093 0.146,-0.221 0.146,-0.353c-0,-0.133 -0.053,-0.26 -0.147,-0.354l-1.5,-1.498c-0.195,-0.195 -0.511,-0.195 -0.707,0l-1.5,1.498Zm-1.646,-7.144l-1.5,-0c-0.828,-0 -1.5,0.672 -1.5,1.5l0,1c-0,0.398 0.158,0.779 0.439,1.061c0.282,0.281 0.663,0.439 1.061,0.439l10,-0c0.828,-0 1.5,-0.672 1.5,-1.5l-0,-1c-0,-0.828 -0.672,-1.5 -1.5,-1.5l-1.5,-0l0,-3.5c0,-0.134 -0.053,-0.262 -0.149,-0.356l-0.851,-0.838l0,-0.806c0,-1.38 -1.12,-2.5 -2.5,-2.5c-1.38,0 -2.5,1.12 -2.5,2.5c0,0.009 0,0.793 0,0.793c0,-0 -0.853,0.853 -0.853,0.853c-0.094,0.094 -0.147,0.221 -0.147,0.354l0,3.5Zm1.647,-16.854c-0.094,0.094 -0.147,0.221 -0.147,0.354c0,0.133 0.053,0.26 0.147,0.354l1.5,1.5c0.195,0.195 0.512,0.195 0.707,-0l1.5,-1.5c0.094,-0.094 0.147,-0.221 0.147,-0.354c-0,-0.133 -0.053,-0.26 -0.147,-0.354l-1.5,-1.5c-0.195,-0.195 -0.512,-0.195 -0.707,0l-1.5,1.5Z" style="fill:#f4d160;"/><path d="M16.25,29.933c-0.038,-0.022 -0.073,-0.048 -0.104,-0.08l-1.501,-1.501c-0.093,-0.094 -0.146,-0.222 -0.146,-0.354c0,-0.133 0.053,-0.26 0.147,-0.354l1.5,-1.498c0.032,-0.031 0.067,-0.058 0.104,-0.079c-0.191,-0.111 -0.44,-0.084 -0.604,0.079l-1.5,1.498c-0.094,0.094 -0.147,0.221 -0.147,0.354c0,0.132 0.053,0.26 0.146,0.354l1.501,1.501c0.094,0.094 0.221,0.147 0.354,0.147c0.088,-0 0.174,-0.023 0.25,-0.067Zm-3.75,-9.433l-1.5,-0c-0.828,-0 -1.5,0.672 -1.5,1.5l0,1c-0,0.398 0.158,0.779 0.439,1.061c0.282,0.281 0.663,0.439 1.061,0.439l0.998,-0c-0.397,-0.001 -0.778,-0.158 -1.059,-0.439c-0.281,-0.282 -0.439,-0.663 -0.439,-1.061l-0,-1c0,-0.828 0.672,-1.5 1.5,-1.5l1.5,-0l0,-3.5c-0,-0.133 0.053,-0.26 0.146,-0.354c0,0 0.854,-0.853 0.854,-0.853c-0,-0 0,-0.784 0,-0.793c0,-1.209 0.859,-2.218 2,-2.45c-0.161,-0.033 -0.328,-0.05 -0.5,-0.05c-1.38,0 -2.5,1.12 -2.5,2.5c0,0.009 0,0.793 0,0.793c0,-0 -0.853,0.853 -0.853,0.853c-0.094,0.094 -0.147,0.221 -0.147,0.354l0,3.5Zm3.75,-14.567c-0.037,-0.021 -0.072,-0.048 -0.104,-0.079l-1.5,-1.5c-0.094,-0.094 -0.147,-0.221 -0.147,-0.354c0,-0.133 0.053,-0.26 0.147,-0.354l1.5,-1.5c0.032,-0.031 0.067,-0.058 0.104,-0.079c-0.191,-0.111 -0.44,-0.084 -0.603,0.079l-1.5,1.5c-0.094,0.094 -0.147,0.221 -0.147,0.354c0,0.133 0.053,0.26 0.147,0.354l1.5,1.5c0.163,0.163 0.412,0.19 0.603,0.079Z" style="fill:#dcc26f;"/></svg>